<?xml version="1.0" encoding="utf-8"?>
<!-- Generator: Adobe Illustrator 16.0.0, SVG Export Plug-In . SVG Version: 6.00 Build 0)  -->
<!DOCTYPE svg PUBLIC "-//W3C//DTD SVG 1.1//EN" "http://www.w3.org/Graphics/SVG/1.1/DTD/svg11.dtd">
<svg version="1.1" id="Layer_1" xmlns="http://www.w3.org/2000/svg" xmlns:xlink="http://www.w3.org/1999/xlink" x="0px" y="0px"
	 width="864px" height="864px" viewBox="0 0 864 864" enable-background="new 0 0 864 864" xml:space="preserve">
<path fill-rule="evenodd" clip-rule="evenodd" d="M779.702,710.51c-3.534-6.201-8.577-11.11-13.796-15.845
	c-17.427-15.808-37.467-27.392-59.145-36.239c-36.224-14.783-74.069-21.579-113.054-22.524c-20.955-0.509-41.796,0.854-62.476,4.386
	c-4.11,0.702-8.211,1.461-12.493,2.227c0.155-0.621,0.254-1.079,0.384-1.527c8.768-30.188,14.027-61,16.191-92.335
	c1.761-25.493,1.128-50.923-2.886-76.209c-3.084-19.431-8.14-38.306-15.952-56.399c-15.066-34.898-38.556-62.556-71.003-82.488
	c-18.521-11.377-38.494-19.322-59.428-24.972c-0.991-0.268-2.026-0.635-2.849-1.224c-6.919-4.952-13.924-9.797-20.638-15.017
	c-5.322-4.137-10.902-8.2-13.206-15.063c-0.231-0.688-0.689-1.307-1.086-1.929c-4.272-6.699-9.551-12.568-15.19-18.112
	c-5.861-5.762-11.997-11.212-19.382-15.007c-1.19-0.612-1.861-1.375-2.288-2.643c-3.772-11.216-7.768-22.36-13.243-32.875
	c-1.799-3.457-4.37-6.51-6.543-9.777c-0.262-0.394-0.407-0.994-0.339-1.459c0.808-5.488,1.73-10.959,2.498-16.452
	c2.298-16.443,3.986-32.941,3.999-49.569c0.007-9.207-0.336-18.389-3.012-27.293c-1.737-5.778-4.441-10.748-11.11-12
	c-0.864,0-1.728,0-2.591,0c-4.753,0.957-8.938,3.116-12.581,6.249c-2.566,2.208-5.077,4.516-7.363,7.009
	c-9.647,10.526-17.179,22.529-24.032,34.982c-0.647,1.177-1.388,1.644-2.707,1.749c-9.528,0.761-19.042,1.726-28.577,2.376
	c-7.196,0.491-14.42,0.565-21.627,0.912c-4.448,0.214-8.064-1.322-11.389-4.283c-6.632-5.908-13.454-11.604-20.231-17.347
	c-9.131-7.737-18.246-15.515-28.529-21.719c-2.98-1.798-6.241-3.187-9.491-4.466c-2.547-1.002-4.86-0.388-6.836,1.779
	c-3.638,3.99-4.757,8.854-5.061,13.965c-0.762,12.837,1.149,25.487,3.17,38.088c2.362,14.723,5.085,29.388,7.598,44.088
	c0.116,0.679-0.083,1.597-0.484,2.151c-11.726,16.188-15.613,34.364-13.481,53.96c1.542,14.176,6.563,27.246,13.51,39.619
	c8.372,14.909,19.156,27.94,31.107,40.077c1.049,1.065,1.996,2.392,2.531,3.774c2.287,5.913,4.437,11.88,6.571,17.852
	c2.355,6.593,3.247,13.338,2.495,20.366c-0.768,7.18-0.98,14.396,0.135,21.591c1.6,10.33,4.988,20.113,9.621,29.399
	c10.066,20.177,20.575,40.134,30.588,60.336c4.944,9.976,9.376,20.221,13.645,30.508c1.404,3.385,1.925,7.259,2.197,10.958
	c0.305,4.145-0.273,8.346-0.218,12.52c0.429,32.517,0.853,65.038-2.47,97.448c-0.656,6.399-2.261,12.712-3.624,19.022
	c-0.596,2.758-2.365,4.636-5.078,5.918c-4.954,2.343-9.106,5.859-12.754,9.951c-2.688,3.016-4.979,6.275-6.271,10.153
	c-1.953,5.866-0.966,11.193,3.498,15.478c2.322,2.227,5.262,3.802,7.854,5.763c0.584,0.441,1.117,1.216,1.265,1.923
	c0.504,2.407,0.653,4.896,1.25,7.274c1.6,6.376,4.84,11.501,11.51,13.567c5.401,1.672,10.777,3.569,16.304,4.655
	c8.879,1.745,17.882,1.735,26.469-1.48c9.333-3.495,16.539-10.175,23.28-17.231c4.51-4.723,7.292-10.664,9.9-16.604
	c0.601-1.371,1.296-1.644,2.658-1.365c2.716,0.554,5.464,0.946,8.197,1.414c3.861,0.659,7.721,1.325,11.765,2.021
	c-0.344,0.959-0.621,1.693-0.872,2.437c-1.933,5.719-2.98,11.595-0.964,17.418c3.295,9.519,10.327,15.423,19.849,17.941
	c5.006,1.323,10.346,1.798,15.549,1.894c20.899,0.385,41.428-2.937,61.784-7.196c14.463-3.027,28.776-6.77,43.167-10.152
	c0.706-0.166,1.637-0.191,2.237,0.135c10.819,5.865,22.465,7.58,34.554,6.785c13.812-0.909,26.678-5.199,38.878-11.559
	c7.617-3.971,15.463-7.337,23.688-9.821c22.42-6.771,45.447-9.517,68.758-10.205c17.424-0.516,34.782,0.397,52,3.268
	c12.007,2.002,23.781,4.876,34.871,10.053c6.471,3.021,12.518,6.693,17.189,12.246c5.081,6.037,4.978,12.053-0.283,17.935
	c-0.818,0.916-1.726,1.768-2.671,2.555c-6.83,5.687-14.827,9.234-23.031,12.339c-18.159,6.87-36.993,11.242-56.03,14.783
	c-9.621,1.789-9.681,1.618-16.034,8.736c-2.926,3.277-5.529,6.796-6.848,11.086c-1.461,4.758-0.332,8.771,3.547,11.915
	c1.045,0.848,2.197,1.615,3.405,2.2c8.112,3.931,16.854,5.067,25.699,5.296c16.122,0.415,31.78-2.681,47.199-7.023
	c23.339-6.575,45.495-15.823,65.374-29.958c8.601-6.115,16.398-13.099,22.03-22.174C785.498,734.098,786.494,722.428,779.702,710.51
	z M266.177,465.998c-43.32-28.871-76.789-86.732-38.771-99.901c0,0,8.479-2.858,14.83-0.813
	c20.525,5.829,23.959,18.019,23.959,18.019s2.791-11.645,24.042-18.395c3.875-1.125,9.649-0.953,14.991,1.082h0.302
	C343.719,378.174,314.639,433.201,266.177,465.998z"/>
</svg>
